FrancaisAudiardAudiard-1965-Les Bons Vivants-Un grand seigneur.avi
Format                                   : AVI
Format/Info                              : Audio Video Interleave
File size                                : 562 MiB
Duration                                 : 1h 40mn
Overall bit rate                         : 784 Kbps
Writing application                      : Nandub v1.0rc2
Writing library                          : Nandub build 1853/release

Video
ID                                       : 0
Format                                   : MPEG-4 Visual
Codec ID                                 : DIV3
Codec ID/Hint                            : DivX 3 Low
Duration                                 : 1h 40mn
Bit rate                                 : 676 Kbps
Width                                    : 512 pixels
Height                                   : 400 pixels
Display aspect ratio                     : 1.280
Frame rate                               : 25.000 fps
Color space                              : YUV
Chroma subsampling                       : 4:2:0
Bit depth                                : 8 bits
Compression mode                         : Lossy
Bits/(Pixel*Frame)                       : 0.132
Stream size                              : 484 MiB (86%)

Audio
ID                                       : 1
Format                                   : MPEG Audio
Format version                           : Version 1
Format profile                           : Layer 3
Codec ID                                 : 55
Codec ID/Hint                            : MP3
Duration                                 : 1h 40mn
Bit rate mode                            : Constant
Bit rate                                 : 96.0 Kbps
Channel(s)                               : 2 channels
Sampling rate                            : 44.1 KHz
Compression mode                         : Lossy
Stream size                              : 68.8 MiB (12%)
Alignment                                : Aligned on interleaves
Interleave, duration                     : 26 ms (0.65 video frame)
Interleave, preload duration             : 496 ms
